--40000LOG 17:48:42:457185400 Waiting for file /home/seluser/videos/vid_chrome_or_firefox_40000* to be created...
Won't start video recording due to VIDEO env var false
ffmpeg version 2.8.17-0ubuntu0.1 Copyright (c) 2000-2020 the FFmpeg developers
  built with gcc 5.4.0 (Ubuntu 5.4.0-6ubuntu1~16.04.12) 20160609
  configuration: --prefix=/usr --extra-version=0ubuntu0.1 --build-suffix=-ffmpeg --toolchain=hardened --libdir=/usr/lib/x86_64-linux-gnu --incdir=/usr/include/x86_64-linux-gnu --cc=cc --cxx=g++ --enable-gpl --enable-shared --disable-stripping --disable-decoder=libopenjpeg --disable-decoder=libschroedinger --enable-avresample --enable-avisynth --enable-gnutls --enable-ladspa --enable-libass --enable-libbluray --enable-libbs2b --enable-libcaca --enable-libcdio --enable-libflite --enable-libfontconfig --enable-libfreetype --enable-libfribidi --enable-libgme --enable-libgsm --enable-libmodplug --enable-libmp3lame --enable-libopenjpeg --enable-libopus --enable-libpulse --enable-librtmp --enable-libschroedinger --enable-libshine --enable-libsnappy --enable-libsoxr --enable-libspeex --enable-libssh --enable-libtheora --enable-libtwolame --enable-libvorbis --enable-libvpx --enable-libwavpack --enable-libwebp --enable-libx265 --enable-libxvid --enable-libzvbi --enable-openal --enable-opengl --enable-x11grab --enable-libdc1394 --enable-libiec61883 --enable-libzmq --enable-frei0r --enable-libx264 --enable-libopencv
  libavutil      54. 31.100 / 54. 31.100
  libavcodec     56. 60.100 / 56. 60.100
  libavformat    56. 40.101 / 56. 40.101
  libavdevice    56.  4.100 / 56.  4.100
  libavfilter     5. 40.101 /  5. 40.101
  libavresample   2.  1.  0 /  2.  1.  0
  libswscale      3.  1.101 /  3.  1.101
  libswresample   1.  2.101 /  1.  2.101
  libpostproc    53.  3.100 / 53.  3.100
Input #0, x11grab, from ':52.0':
  Duration: N/A, start: 1605196122.816606, bitrate: N/A
    Stream #0:0: Video: rawvideo (BGR[0] / 0x524742), bgr0, 1366x768, 10 fps, 10 tbr, 1000k tbn, 10 tbc
[libx264 @ 0x1435320] using cpu capabilities: MMX2 SSE2Fast SSSE3 SSE4.2 AVX FMA3 AVX2 LZCNT BMI2
[libx264 @ 0x1435320] profile Constrained Baseline, level 3.2
[libx264 @ 0x1435320] 264 - core 148 r2643 5c65704 - H.264/MPEG-4 AVC codec - Copyleft 2003-2015 - http://www.videolan.org/x264.html - options: cabac=0 ref=1 deblock=0:0:0 analyse=0:0 me=dia subme=0 psy=1 psy_rd=1.00:0.00 mixed_ref=0 me_range=16 chroma_me=1 trellis=0 8x8dct=0 cqm=0 deadzone=21,11 fast_pskip=1 chroma_qp_offset=0 threads=3 lookahead_threads=1 sliced_threads=0 nr=0 decimate=1 interlaced=0 bluray_compat=0 constrained_intra=0 bframes=0 weightp=0 keyint=250 keyint_min=10 scenecut=0 intra_refresh=0 rc=crf mbtree=0 crf=23.0 qcomp=0.60 qpmin=0 qpmax=69 qpstep=4 ip_ratio=1.40 aq=0
Output #0, matroska, to '/home/seluser/videos/vid_chrome_or_firefox_40000.mkv':
  Metadata:
    encoder         : Lavf56.40.101
    Stream #0:0: Video: h264 (libx264) (H264 / 0x34363248), yuv420p, 1366x768, q=-1--1, 10 fps, 1k tbn, 10 tbc
    Metadata:
      encoder         : Lavc56.60.100 libx264
Stream mapping:
  Stream #0:0 -> #0:0 (rawvideo (native) -> h264 (libx264))
Press [q] to stop, [?] for help
[swscaler @ 0x1440ca0] Warning: data is not aligned! This can lead to a speedloss
frame=    8 fps=0.0 q=10.0 size=      25kB time=00:00:00.40 bitrate= 515.2kbits/s    
frame=   14 fps= 12 q=9.0 size=      28kB time=00:00:01.00 bitrate= 229.7kbits/s    
frame=   19 fps= 11 q=9.0 size=      29kB time=00:00:01.50 bitrate= 156.9kbits/s    
frame=   24 fps= 11 q=13.0 size=      37kB time=00:00:02.00 bitrate= 151.1kbits/s    
frame=   30 fps= 11 q=9.0 size=      54kB time=00:00:02.60 bitrate= 170.2kbits/s    
frame=   35 fps= 11 q=9.0 size=      56kB time=00:00:03.10 bitrate= 146.8kbits/s    
frame=   40 fps= 11 q=9.0 size=      57kB time=00:00:03.60 bitrate= 129.4kbits/s    
frame=   46 fps= 10 q=9.0 size=      58kB time=00:00:04.20 bitrate= 113.4kbits/s    
frame=   52 fps= 10 q=13.0 size=      84kB time=00:00:04.80 bitrate= 143.7kbits/s    
frame=   57 fps= 10 q=10.0 size=      95kB time=00:00:05.30 bitrate= 147.2kbits/s    
frame=   63 fps= 10 q=9.0 size=     100kB time=00:00:05.90 bitrate= 139.1kbits/s    
frame=   68 fps= 10 q=9.0 size=     102kB time=00:00:06.40 bitrate= 130.1kbits/s    
frame=   73 fps= 10 q=9.0 size=     103kB time=00:00:06.90 bitrate= 121.9kbits/s    
frame=   79 fps= 10 q=13.0 size=     104kB time=00:00:07.50 bitrate= 113.6kbits/s    
frame=   84 fps= 10 q=10.0 size=     125kB time=00:00:08.00 bitrate= 128.4kbits/s    
frame=   89 fps= 10 q=9.0 size=     127kB time=00:00:08.50 bitrate= 122.8kbits/s    
frame=   94 fps= 10 q=9.0 size=     129kB time=00:00:09.00 bitrate= 117.1kbits/s    
frame=   99 fps= 10 q=9.0 size=     130kB time=00:00:09.50 bitrate= 111.8kbits/s    
frame=  104 fps= 10 q=9.0 size=     131kB time=00:00:10.00 bitrate= 106.9kbits/s    
frame=  110 fps= 10 q=18.0 size=     167kB time=00:00:10.60 bitrate= 129.1kbits/s    
frame=  115 fps= 10 q=11.0 size=     229kB time=00:00:11.10 bitrate= 169.2kbits/s    
frame=  120 fps= 10 q=9.0 size=     246kB time=00:00:11.60 bitrate= 173.4kbits/s    
frame=  126 fps= 10 q=14.0 size=     251kB time=00:00:12.20 bitrate= 168.3kbits/s    
frame=  131 fps= 10 q=14.0 size=     273kB time=00:00:12.70 bitrate= 176.0kbits/s    
frame=  137 fps= 10 q=12.0 size=     307kB time=00:00:13.30 bitrate= 189.0kbits/s    
frame=  143 fps= 10 q=12.0 size=     344kB time=00:00:13.90 bitrate= 202.5kbits/s    
frame=  149 fps= 10 q=9.0 size=     360kB time=00:00:14.50 bitrate= 203.5kbits/s    
frame=  154 fps= 10 q=9.0 size=     368kB time=00:00:15.00 bitrate= 201.1kbits/s    
frame=  159 fps= 10 q=9.0 size=     370kB time=00:00:15.50 bitrate= 195.4kbits/s    
frame=  164 fps= 10 q=12.0 size=     371kB time=00:00:16.00 bitrate= 190.2kbits/s    
frame=  170 fps= 10 q=10.0 size=     396kB time=00:00:16.60 bitrate= 195.5kbits/s    
frame=  175 fps= 10 q=14.0 size=     435kB time=00:00:17.10 bitrate= 208.4kbits/s    
frame=  178 fps= 10 q=10.0 size=     453kB time=00:00:17.40 bitrate= 213.5kbits/s    
frame=  186 fps= 10 q=9.0 size=     467kB time=00:00:18.20 bitrate= 210.1kbits/s    
frame=  191 fps= 10 q=9.0 size=     470kB time=00:00:18.70 bitrate= 206.1kbits/s    
frame=  196 fps= 10 q=9.0 size=     471kB time=00:00:19.20 bitrate= 200.9kbits/s    
frame=  202 fps= 10 q=16.0 size=     557kB time=00:00:19.80 bitrate= 230.4kbits/s    
frame=  207 fps= 10 q=10.0 size=     652kB time=00:00:20.30 bitrate= 263.0kbits/s    
frame=  212 fps= 10 q=9.0 size=     678kB time=00:00:20.80 bitrate= 266.9kbits/s    
frame=  217 fps= 10 q=9.0 size=     678kB time=00:00:21.30 bitrate= 260.9kbits/s    
frame=  219 fps=9.9 q=9.0 size=     679kB time=00:00:21.50 bitrate= 258.5kbits/s    
frame=  224 fps=9.8 q=9.0 size=     679kB time=00:00:22.00 bitrate= 252.9kbits/s    
frame=  232 fps= 10 q=9.0 size=     680kB time=00:00:22.80 bitrate= 244.3kbits/s    
frame=  240 fps= 10 q=9.0 size=     681kB time=00:00:23.60 bitrate= 236.2kbits/s    
frame=  243 fps=9.9 q=10.0 size=     681kB time=00:00:23.90 bitrate= 233.4kbits/s    
frame=  249 fps= 10 q=14.0 size=     712kB time=00:00:24.50 bitrate= 238.0kbits/s    
frame=  257 fps= 10 q=12.0 size=     840kB time=00:00:25.30 bitrate= 272.1kbits/s    
frame=  263 fps= 10 q=9.0 size=     841kB time=00:00:25.90 bitrate= 266.1kbits/s    
frame=  268 fps= 10 q=9.0 size=     842kB time=00:00:26.40 bitrate= 261.2kbits/s    
frame=  274 fps= 10 q=9.0 size=     842kB time=00:00:27.00 bitrate= 255.5kbits/s    
frame=  279 fps= 10 q=9.0 size=     842kB time=00:00:27.50 bitrate= 250.9kbits/s    
frame=  284 fps= 10 q=9.0 size=     843kB time=00:00:28.00 bitrate= 246.5kbits/s    
frame=  290 fps= 10 q=9.0 size=     843kB time=00:00:28.60 bitrate= 241.5kbits/s    
frame=  296 fps= 10 q=9.0 size=     843kB time=00:00:29.20 bitrate= 236.6kbits/s    
frame=  301 fps= 10 q=9.0 size=     844kB time=00:00:29.70 bitrate= 232.8kbits/s    
frame=  307 fps= 10 q=9.0 size=     844kB time=00:00:30.30 bitrate= 228.3kbits/s    
frame=  313 fps= 10 q=9.0 size=     845kB time=00:00:30.90 bitrate= 223.9kbits/s    
frame=  319 fps= 10 q=9.0 size=     845kB time=00:00:31.50 bitrate= 219.8kbits/s    
frame=  324 fps= 10 q=9.0 size=     845kB time=00:00:32.00 bitrate= 216.4kbits/s    
frame=  329 fps= 10 q=9.0 size=     846kB time=00:00:32.50 bitrate= 213.2kbits/s    
frame=  335 fps= 10 q=9.0 size=     846kB time=00:00:33.10 bitrate= 209.4kbits/s    
frame=  340 fps= 10 q=9.0 size=     847kB time=00:00:33.60 bitrate= 206.4kbits/s    
frame=  346 fps= 10 q=9.0 size=     847kB time=00:00:34.20 bitrate= 202.9kbits/s    
frame=  351 fps= 10 q=9.0 size=     847kB time=00:00:34.70 bitrate= 200.0kbits/s    
frame=  357 fps= 10 q=10.0 size=     848kB time=00:00:35.30 bitrate= 196.7kbits/s    
frame=  362 fps= 10 q=12.0 size=     856kB time=00:00:35.80 bitrate= 196.0kbits/s    
frame=  368 fps= 10 q=12.0 size=     877kB time=00:00:36.40 bitrate= 197.4kbits/s    
frame=  373 fps= 10 q=10.0 size=     885kB time=00:00:36.90 bitrate= 196.5kbits/s    
frame=  379 fps= 10 q=12.0 size=     915kB time=00:00:37.50 bitrate= 199.8kbits/s    
frame=  385 fps= 10 q=9.0 size=     928kB time=00:00:38.10 bitrate= 199.5kbits/s    
frame=  390 fps= 10 q=10.0 size=     928kB time=00:00:38.60 bitrate= 197.0kbits/s    
frame=  395 fps= 10 q=9.0 size=     929kB time=00:00:39.10 bitrate= 194.7kbits/s    
frame=  401 fps= 10 q=18.0 size=    1026kB time=00:00:39.70 bitrate= 211.6kbits/s    
frame=  407 fps= 10 q=10.0 size=    1127kB time=00:00:40.30 bitrate= 229.2kbits/s    
frame=  413 fps= 10 q=9.0 size=    1141kB time=00:00:40.90 bitrate= 228.6kbits/s    
frame=  419 fps= 10 q=9.0 size=    1142kB time=00:00:41.50 bitrate= 225.4kbits/s    
frame=  424 fps= 10 q=9.0 size=    1142kB time=00:00:42.00 bitrate= 222.8kbits/s    
frame=  430 fps= 10 q=9.0 size=    1143kB time=00:00:42.60 bitrate= 219.8kbits/s    
frame=  436 fps= 10 q=9.0 size=    1143kB time=00:00:43.20 bitrate= 216.8kbits/s    
frame=  441 fps= 10 q=9.0 size=    1144kB time=00:00:43.70 bitrate= 214.4kbits/s    
frame=  446 fps= 10 q=9.0 size=    1144kB time=00:00:44.20 bitrate= 212.1kbits/s    
frame=  452 fps= 10 q=9.0 size=    1145kB time=00:00:44.80 bitrate= 209.4kbits/s    
frame=  458 fps= 10 q=9.0 size=    1146kB time=00:00:45.40 bitrate= 206.7kbits/s    
frame=  463 fps= 10 q=9.0 size=    1146kB time=00:00:45.90 bitrate= 204.5kbits/s    
frame=  468 fps= 10 q=9.0 size=    1147kB time=00:00:46.40 bitrate= 202.4kbits/s    
frame=  474 fps= 10 q=9.0 size=    1147kB time=00:00:47.00 bitrate= 199.9kbits/s    
frame=  479 fps= 10 q=9.0 size=    1147kB time=00:00:47.50 bitrate= 197.9kbits/s    
frame=  485 fps= 10 q=9.0 size=    1148kB time=00:00:48.10 bitrate= 195.5kbits/s    
frame=  490 fps= 10 q=9.0 size=    1149kB time=00:00:48.60 bitrate= 193.6kbits/s    
frame=  496 fps= 10 q=9.0 size=    1149kB time=00:00:49.20 bitrate= 191.3kbits/s    
frame=  501 fps= 10 q=15.0 size=    1150kB time=00:00:49.70 bitrate= 189.5kbits/s    
frame=  507 fps= 10 q=11.0 size=    1206kB time=00:00:50.30 bitrate= 196.4kbits/s    
frame=  513 fps= 10 q=10.0 size=    1210kB time=00:00:50.90 bitrate= 194.8kbits/s    
frame=  519 fps= 10 q=9.0 size=    1211kB time=00:00:51.50 bitrate= 192.6kbits/s    
frame=  525 fps= 10 q=9.0 size=    1211kB time=00:00:52.10 bitrate= 190.4kbits/s    
--40000LOG 17:49:35:468599400 Trapped SIGTERM or SIGINT so shutting down ffmpeg gracefully...
--40000LOG 17:49:35:474244300 Will kill VID_TOOL_PID=569 ...
frame=  528 fps= 10 q=-1.0 Lsize=    1211kB time=00:00:52.80 bitrate= 187.9kbits/s    
video:1207kB audio:0kB subtitle:0kB other streams:0kB global headers:0kB muxing overhead: 0.355769%
[libx264 @ 0x1435320] frame I:3     Avg QP:11.67  size: 54172
[libx264 @ 0x1435320] frame P:525   Avg QP:10.06  size:  2043
[libx264 @ 0x1435320] mb I  I16..4: 100.0%  0.0%  0.0%
[libx264 @ 0x1435320] mb P  I16..4:  1.7%  0.0%  0.0%  P16..4:  1.9%  0.0%  0.0%  0.0%  0.0%    skip:96.5%
[libx264 @ 0x1435320] coded y,uvDC,uvAC intra: 14.2% 8.9% 8.2% inter: 0.8% 0.9% 0.5%
[libx264 @ 0x1435320] i16 v,h,dc,p: 76% 22%  1%  1%
[libx264 @ 0x1435320] i8c dc,h,v,p: 84% 13%  3%  1%
[libx264 @ 0x1435320] kb/s:187.17
Exiting normally, received signal 2.
--40000LOG 17:49:36:503632200 Tried to kill -SIGTERM VID_TOOL_PID=569
--40000LOG 17:49:36:522066000 Waiting up to 6s for VID_TOOL_PID=569 to end with SIGTERM...
--40000LOG 17:49:36:548727900 wait_pid successfully managed to SIGTERM:VID_TOOL_PID=569 within less than 6s
--40000LOG 17:49:36:566940700 Will try to fix the videos...
--40000LOG 17:49:37:095150400 Fixing perms for /home/seluser/videos/vid_chrome_or_firefox_40000.mkv*
--40000LOG 17:49:37:113145600 Changing video encoding from mkv to mp4...
--40000LOG 17:49:45:108583700 Conversion from mkv to mp4 succeeded!
--40000LOG 17:49:45:131334400 Cleaning up /home/seluser/videos/vid_chrome_or_firefox_40000.mkv ...
--40000LOG 17:49:45:175370800 Optimizing /home/seluser/videos/vid_chrome_or_firefox_40000.mp4 for HTTP streaming...
--40000LOG 17:49:45:326023500 Succeeded to mp4box_retry.sh within 8s
--40000LOG 17:49:45:345249900 ffmpeg shutdown complete.
